<svg xmlns="http://www.w3.org/2000/svg" viewBox="0 0 1024 1024" role="img" aria-label="UNIGO">
  <defs>
    <linearGradient id="leftGold" x1="0.2" y1="0" x2="0.85" y2="1">
      <stop offset="0" stop-color="#fff7cf"/>
      <stop offset="0.48" stop-color="#efd58e"/>
      <stop offset="0.78" stop-color="#c6a04d"/>
      <stop offset="1" stop-color="#8d6928"/>
    </linearGradient>
    <linearGradient id="rightGold" x1="0.15" y1="0" x2="0.9" y2="1">
      <stop offset="0" stop-color="#fff8d7"/>
      <stop offset="0.45" stop-color="#efd28a"/>
      <stop offset="0.74" stop-color="#bd9441"/>
      <stop offset="1" stop-color="#75531d"/>
    </linearGradient>
    <linearGradient id="innerGold" x1="0" y1="0" x2="1" y2="1">
      <stop offset="0" stop-color="#e7c977"/>
      <stop offset="1" stop-color="#6f4e1a"/>
    </linearGradient>
    <radialGradient id="orb" cx="34%" cy="28%" r="72%">
      <stop offset="0" stop-color="#fffbe2"/>
      <stop offset="0.48" stop-color="#efd58e"/>
      <stop offset="1" stop-color="#9c7630"/>
    </radialGradient>
  </defs>
  <rect width="1024" height="1024" rx="220" fill="#090a0a"/>
  <path d="M393 347c-18 37-29 75-28 112 1 62 28 113 72 151 27 24 58 41 91 50 25 7 45 1 61-16 11-11 20-26 28-43-21 14-43 19-66 15-31-5-66-23-103-53-45-37-72-82-79-132-5-31 3-59 24-84z" fill="url(#leftGold)"/>
  <path d="M493 551c46-31 83-74 113-128 31-55 59-104 88-147-20 38-37 78-51 121-18 56-41 106-69 151-18 28-34 43-50 46-13 2-25-2-38-11-7-5-14-11-20-18 10-3 19-8 27-14z" fill="url(#rightGold)"/>
  <path d="M493 551c24 18 47 27 69 26 18-1 35-7 51-19-12 19-27 33-44 41-20 9-40 8-60-3-13-7-24-18-34-31 6-3 12-8 18-14z" fill="url(#innerGold)" opacity=".9"/>
  <circle cx="512" cy="434" r="31" fill="url(#orb)"/>
</svg>