<svg xmlns="http://www.w3.org/2000/svg" viewBox="0 0 512 512" role="img" aria-label="UNIGO logo mark">
  <defs>
    <radialGradient id="halo" cx="50%" cy="50%" r="42%">
      <stop offset="0" stop-color="#f5dc8a" stop-opacity=".55"/>
      <stop offset=".54" stop-color="#d6b45e" stop-opacity=".24"/>
      <stop offset="1" stop-color="#d6b45e" stop-opacity="0"/>
    </radialGradient>
    <linearGradient id="goldA" x1="148" y1="365" x2="355" y2="131" gradientUnits="userSpaceOnUse">
      <stop offset="0" stop-color="#9b7631"/>
      <stop offset=".42" stop-color="#f0d88d"/>
      <stop offset="1" stop-color="#fff4c4"/>
    </linearGradient>
    <linearGradient id="goldB" x1="283" y1="338" x2="382" y2="137" gradientUnits="userSpaceOnUse">
      <stop offset="0" stop-color="#8a6728"/>
      <stop offset=".5" stop-color="#d8b55f"/>
      <stop offset="1" stop-color="#fff1bf"/>
    </linearGradient>
    <radialGradient id="orb" cx="38%" cy="28%" r="72%">
      <stop offset="0" stop-color="#fff8ce"/>
      <stop offset=".48" stop-color="#e5c66f"/>
      <stop offset="1" stop-color="#8f6d2d"/>
    </radialGradient>
    <filter id="soft" x="-35%" y="-35%" width="170%" height="170%">
      <feGaussianBlur in="SourceAlpha" stdDeviation="2.8"/>
      <feOffset dy="3"/>
      <feColorMatrix values="0 0 0 0 0.21 0 0 0 0 0.16 0 0 0 0 0.08 0 0 0 .32 0"/>
      <feBlend in="SourceGraphic"/>
    </filter>
  </defs>
  <rect width="512" height="512" fill="none"/>
  <circle cx="256" cy="256" r="178" fill="url(#halo)"/>
  <g filter="url(#soft)">
    <path d="M196 174c-26 62-17 120 30 173 30 34 65 54 101 58 30 4 54-7 74-32-32 12-67 5-103-20-48-34-77-79-87-134-3-18-8-34-15-45Z" fill="url(#goldA)" stroke="#6d5528" stroke-opacity=".45" stroke-width="2"/>
    <path d="M247 359c61-43 101-100 136-177 17-37 36-68 59-93-42 83-57 153-89 217-20 41-43 65-70 72-14 4-26-2-36-19Z" fill="url(#goldB)" stroke="#6d5528" stroke-opacity=".42" stroke-width="2"/>
    <path d="M247 359c30 21 58 24 84 9-18 25-39 38-63 34-18-3-34-14-47-32 10-1 19-5 26-11Z" fill="#b99443" opacity=".82"/>
    <circle cx="256" cy="222" r="30" fill="url(#orb)" stroke="#6d5528" stroke-opacity=".4" stroke-width="2"/>
  </g>
</svg>
