<svg xmlns="http://www.w3.org/2000/svg" viewBox="0 0 1200 700"><defs><linearGradient id="bg" x1="0" y1="0" x2="1" y2="1"><stop stop-color="#151816"/><stop offset="1" stop-color="#090a0a"/></linearGradient><filter id="glow"><feGaussianBlur stdDeviation="10" result="b"/><feMerge><feMergeNode in="b"/><feMergeNode in="SourceGraphic"/></feMerge></filter></defs><rect x="20" y="20" width="1160" height="660" rx="42" fill="url(#bg)" stroke="#fff" stroke-opacity=".1"/><g stroke="#fff" stroke-opacity=".13" stroke-width="2"><path d="M230 350C390 180 470 180 600 350S820 520 970 350"/><path d="M230 350C410 540 520 520 600 350S800 170 970 350"/><path d="M600 350L600 120M600 350L600 580"/></g><g font-family="Arial" text-anchor="middle"><g transform="translate(600 350)" filter="url(#glow)"><circle r="100" fill="#111412" stroke="#d7bd75" stroke-width="4"/><circle r="76" fill="#d7bd75" fill-opacity=".1"/><text y="-6" font-size="34" font-weight="700" fill="#f3ead8">UNIGO</text><text y="27" font-size="14" letter-spacing="3" fill="#d7bd75">IMPACT MOVEMENT</text></g><g transform="translate(230 350)"><circle r="72" fill="#111412" stroke="#7aa2ff" stroke-width="3"/><text y="-4" font-size="23" font-weight="700" fill="#f6f4ee">Travelers</text><text y="26" font-size="13" fill="#9ab3ff">Discover · Act · Earn</text></g><g transform="translate(970 350)"><circle r="72" fill="#111412" stroke="#7fe08f" stroke-width="3"/><text y="-4" font-size="23" font-weight="700" fill="#f6f4ee">Businesses</text><text y="26" font-size="13" fill="#a9edb4">Evidence · Improve · Grow</text></g><g transform="translate(600 120)"><circle r="66" fill="#111412" stroke="#ff7aa8" stroke-width="3"/><text y="-4" font-size="21" font-weight="700" fill="#f6f4ee">Communities</text><text y="24" font-size="13" fill="#ffabc7">Culture · Inclusion</text></g><g transform="translate(600 580)"><circle r="66" fill="#111412" stroke="#a67cff" stroke-width="3"/><text y="-4" font-size="21" font-weight="700" fill="#f6f4ee">Facilitators</text><text y="24" font-size="13" fill="#c8adff">Connect · Activate</text></g><text x="600" y="650" font-size="15" letter-spacing="5" fill="#aaa9a4">BRINGING CULTURES TOGETHER</text></g></svg>